<svg width="146" height="34" viewBox="0 0 146 34" fill="none" xmlns="http://www.w3.org/2000/svg">
<path d="M16.3907 2.38124L17.1957 7.26848C17.9157 11.6396 21.3416 15.0656 25.7128 15.7856L30.6 16.5906L25.7128 17.3956C21.3416 18.1156 17.9157 21.5416 17.1957 25.9128L16.3907 30.8L15.5857 25.9128C14.8657 21.5416 11.4397 18.1156 7.06851 17.3956L2.18127 16.5906L7.06851 15.7856C11.4397 15.0656 14.8657 11.6396 15.5857 7.26848L16.3907 2.38124Z" fill="black"/>
<path d="M41.989 23.905V21.511H45.832C46.532 21.511 47.064 21.322 47.428 20.944C47.792 20.552 47.974 20.02 47.974 19.348C47.974 18.676 47.792 18.158 47.428 17.794C47.064 17.416 46.532 17.227 45.832 17.227H41.989V15.4H45.622C46.644 15.4 47.554 15.526 48.352 15.778C49.164 16.016 49.794 16.422 50.242 16.996C50.704 17.57 50.935 18.34 50.935 19.306V19.6C50.935 20.51 50.732 21.287 50.326 21.931C49.934 22.561 49.339 23.051 48.541 23.401C47.757 23.737 46.784 23.905 45.622 23.905H41.989ZM39.49 23.905V8.365H42.409V23.905H39.49ZM41.989 16.744V14.917H45.265C45.979 14.917 46.504 14.728 46.84 14.35C47.176 13.972 47.344 13.468 47.344 12.838C47.344 12.208 47.176 11.704 46.84 11.326C46.504 10.948 45.979 10.759 45.265 10.759H41.989V8.365H44.992C46.728 8.365 48.044 8.729 48.94 9.457C49.85 10.185 50.305 11.228 50.305 12.586V12.88C50.305 13.832 50.074 14.595 49.612 15.169C49.164 15.729 48.541 16.135 47.743 16.387C46.945 16.625 46.028 16.744 44.992 16.744H41.989ZM57.392 24.157C56.076 24.157 55.054 23.723 54.326 22.855C53.612 21.987 53.255 20.699 53.255 18.991V12.376H56.174V19.243C56.174 19.943 56.37 20.503 56.762 20.923C57.154 21.329 57.686 21.532 58.358 21.532C59.03 21.532 59.576 21.315 59.996 20.881C60.43 20.447 60.647 19.859 60.647 19.117V12.376H63.566V23.8H61.256V18.949H61.487C61.487 20.097 61.34 21.056 61.046 21.826C60.752 22.596 60.311 23.177 59.723 23.569C59.135 23.961 58.4 24.157 57.518 24.157H57.392ZM67.2551 23.8V12.397H70.1741V23.8H67.2551ZM65.6591 14.581V12.397H70.1741V14.581H65.6591ZM68.3261 11.032C67.7521 11.032 67.3251 10.885 67.0451 10.591C66.7791 10.283 66.6461 9.905 66.6461 9.457C66.6461 8.981 66.7791 8.596 67.0451 8.302C67.3251 8.008 67.7521 7.861 68.3261 7.861C68.9001 7.861 69.3201 8.008 69.5861 8.302C69.8521 8.596 69.9851 8.981 69.9851 9.457C69.9851 9.905 69.8521 10.283 69.5861 10.591C69.3201 10.885 68.9001 11.032 68.3261 11.032ZM73.4752 23.8V8.47H76.3942V23.8H73.4752ZM72.0472 10.654V8.47H76.3942V10.654H72.0472ZM84.2416 24.178C83.4436 24.178 82.7086 24.031 82.0366 23.737C81.3646 23.443 80.7836 23.03 80.2936 22.498C79.8036 21.966 79.4256 21.35 79.1596 20.65C78.8936 19.936 78.7606 19.166 78.7606 18.34V17.899C78.7606 17.087 78.8866 16.324 79.1386 15.61C79.4046 14.896 79.7686 14.273 80.2306 13.741C80.7066 13.209 81.2736 12.796 81.9316 12.502C82.6036 12.194 83.3456 12.04 84.1576 12.04C85.0536 12.04 85.8376 12.236 86.5096 12.628C87.1956 13.006 87.7416 13.58 88.1476 14.35C88.5536 15.12 88.7776 16.086 88.8196 17.248L87.9586 16.24V8.47H90.8776V23.8H88.5676V18.949H89.0716C89.0296 20.111 88.7916 21.084 88.3576 21.868C87.9236 22.638 87.3496 23.219 86.6356 23.611C85.9356 23.989 85.1376 24.178 84.2416 24.178ZM84.8926 21.721C85.4666 21.721 85.9916 21.595 86.4676 21.343C86.9436 21.077 87.3216 20.699 87.6016 20.209C87.8956 19.705 88.0426 19.117 88.0426 18.445V17.605C88.0426 16.933 87.8956 16.373 87.6016 15.925C87.3076 15.463 86.9226 15.113 86.4466 14.875C85.9706 14.623 85.4526 14.497 84.8926 14.497C84.2626 14.497 83.7026 14.651 83.2126 14.959C82.7366 15.253 82.3586 15.673 82.0786 16.219C81.8126 16.765 81.6796 17.402 81.6796 18.13C81.6796 18.858 81.8196 19.495 82.0996 20.041C82.3796 20.573 82.7576 20.986 83.2336 21.28C83.7236 21.574 84.2766 21.721 84.8926 21.721ZM96.7412 23.8L92.8352 8.47H95.9222L99.0932 21.805L98.2742 21.322H100.374L99.4502 21.805L101.949 9.058H104.511L101.403 23.8H96.7412ZM105.897 23.8L102.516 9.058H105.183L108.06 21.805L107.157 21.322H109.215L108.417 21.805L111.21 8.47H114.129L110.643 23.8H105.897ZM116.372 23.8V12.397H119.291V23.8H116.372ZM114.776 14.581V12.397H119.291V14.581H114.776ZM117.443 11.032C116.869 11.032 116.442 10.885 116.162 10.591C115.896 10.283 115.763 9.905 115.763 9.457C115.763 8.981 115.896 8.596 116.162 8.302C116.442 8.008 116.869 7.861 117.443 7.861C118.017 7.861 118.437 8.008 118.703 8.302C118.969 8.596 119.102 8.981 119.102 9.457C119.102 9.905 118.969 10.283 118.703 10.591C118.437 10.885 118.017 11.032 117.443 11.032ZM126.582 24.157C125.014 24.157 123.782 23.828 122.886 23.17C122.004 22.498 121.542 21.574 121.5 20.398H124.125C124.167 20.79 124.384 21.147 124.776 21.469C125.168 21.791 125.784 21.952 126.624 21.952C127.324 21.952 127.877 21.826 128.283 21.574C128.703 21.322 128.913 20.979 128.913 20.545C128.913 20.167 128.752 19.866 128.43 19.642C128.122 19.418 127.59 19.271 126.834 19.201L125.826 19.096C124.552 18.956 123.572 18.592 122.886 18.004C122.2 17.416 121.857 16.632 121.857 15.652C121.857 14.868 122.053 14.21 122.445 13.678C122.837 13.146 123.376 12.747 124.062 12.481C124.762 12.201 125.56 12.061 126.456 12.061C127.856 12.061 128.99 12.369 129.858 12.985C130.726 13.601 131.181 14.504 131.223 15.694H128.598C128.57 15.302 128.374 14.966 128.01 14.686C127.646 14.406 127.121 14.266 126.435 14.266C125.819 14.266 125.343 14.385 125.007 14.623C124.671 14.861 124.503 15.169 124.503 15.547C124.503 15.911 124.636 16.191 124.902 16.387C125.182 16.583 125.63 16.716 126.246 16.786L127.254 16.891C128.598 17.031 129.648 17.402 130.404 18.004C131.174 18.606 131.559 19.418 131.559 20.44C131.559 21.196 131.349 21.854 130.929 22.414C130.523 22.96 129.949 23.387 129.207 23.695C128.465 24.003 127.59 24.157 126.582 24.157ZM138.864 24.199C137.884 24.199 137.023 24.031 136.281 23.695C135.553 23.359 134.944 22.911 134.454 22.351C133.978 21.777 133.614 21.14 133.362 20.44C133.124 19.74 133.005 19.026 133.005 18.298V17.899C133.005 17.143 133.124 16.415 133.362 15.715C133.614 15.001 133.978 14.371 134.454 13.825C134.944 13.265 135.546 12.824 136.26 12.502C136.974 12.166 137.8 11.998 138.738 11.998C139.97 11.998 140.999 12.271 141.825 12.817C142.665 13.349 143.295 14.056 143.715 14.938C144.135 15.806 144.345 16.744 144.345 17.752V18.802H134.244V17.017H142.518L141.615 17.899C141.615 17.171 141.51 16.548 141.3 16.03C141.09 15.512 140.768 15.113 140.334 14.833C139.914 14.553 139.382 14.413 138.738 14.413C138.094 14.413 137.548 14.56 137.1 14.854C136.652 15.148 136.309 15.575 136.071 16.135C135.847 16.681 135.735 17.339 135.735 18.109C135.735 18.823 135.847 19.46 136.071 20.02C136.295 20.566 136.638 21 137.1 21.322C137.562 21.63 138.15 21.784 138.864 21.784C139.578 21.784 140.159 21.644 140.607 21.364C141.055 21.07 141.342 20.713 141.468 20.293H144.156C143.988 21.077 143.666 21.763 143.19 22.351C142.714 22.939 142.105 23.394 141.363 23.716C140.635 24.038 139.802 24.199 138.864 24.199Z" fill="#0F172A"/>
</svg>
